<svg width="40" height="40" viewBox="0 0 40 40" fill="none" xmlns="http://www.w3.org/2000/svg">
<g clip-path="url(#clip0_2251_11593)">
<g clip-path="url(#clip1_2251_11593)">
<g clip-path="url(#clip2_2251_11593)">
<path d="M18.119 0.438347C20.2031 0.110826 21.0597 0.81277 22.8072 1.53669C24.782 2.3548 26.4703 1.50789 28.5625 2.69454C30.7796 3.95195 31.1047 5.83179 32.0876 7.92775C35.6363 11.86 37.0824 16.0811 35.1345 21.2211C33.681 26.7353 30.2813 30.9441 26.0419 34.2665C22.4713 37.0649 18.0512 39.2092 13.5439 38.6944C10.4958 38.3463 8.61481 36.5696 7.07285 32.3811C6.30819 30.3069 6.59977 28.1876 6.14687 26.0916C5.66661 23.8681 4.38142 22.4526 4.32723 19.9775C4.29664 18.573 4.84311 17.3012 4.65659 15.8622C4.5126 14.7523 4.30816 14.1027 4.49757 12.931C4.90937 10.3839 6.87603 9.5441 7.80152 7.38297C8.36524 6.06691 8.6039 5.07191 9.78118 4.0861C11.3264 2.79198 12.9826 3.18879 14.6053 2.1582C15.8898 1.34259 16.4822 0.695826 18.119 0.438347Z" fill="#4285F4"/>
<path d="M18.1548 3.03576C20.3439 2.56443 21.1659 3.91973 23.035 4.31809C24.7286 4.67884 26.4281 4.04477 27.8417 5.31546C29.16 6.50014 29.4093 8.65544 30.3905 10.1501C31.4856 11.8185 32.9597 12.5324 33.3506 14.767C34.0653 18.8539 31.2799 24.964 28.8145 28.1641C26.6385 30.9886 22.318 34.5471 18.8574 35.5258C16.6749 36.1429 12.8184 35.5803 11.0193 34.2408C9.0048 32.7411 9.09889 28.5586 8.78208 26.3493C8.40483 23.7176 6.66679 21.7739 6.93708 19.0934C7.01409 18.3286 7.24953 17.5808 7.27059 16.8062C7.3048 15.5434 6.78562 14.4199 7.10103 13.1255C7.47498 11.5899 8.86291 10.8215 9.61477 9.53668C10.4992 8.02512 10.4685 6.06886 12.486 5.50723C13.4038 5.25175 14.1573 5.27251 15.0759 4.83569C16.1214 4.33838 16.9988 3.28508 18.1554 3.03602L18.1548 3.03576Z" fill="#D2E3FC"/>
<path d="M18.5523 9.07741C21.1351 8.61593 23.7891 9.2573 25.1153 11.6761C25.7123 12.765 25.8388 13.8616 26.7394 14.8302C27.7175 15.8824 28.3503 16.2064 28.8139 17.7201C30.4296 23 25.1735 30.4965 20.3764 32.4689C18.0094 33.442 14.7927 33.2208 12.657 31.777C10.3258 30.201 11.4131 28.2617 11.1076 26.0254C10.9699 25.0172 10.58 24.0254 10.4694 22.9873C9.90123 17.6444 12.6301 10.1351 18.5526 9.07708L18.5523 9.07741Z" fill="white"/>
</g>
</g>
</g>
<defs>
<clipPath id="clip0_2251_11593">
<rect width="40" height="40" fill="white"/>
</clipPath>
<clipPath id="clip1_2251_11593">
<rect width="40" height="40" fill="white" transform="translate(1.13608 -1.7312) rotate(5.20288)"/>
</clipPath>
<clipPath id="clip2_2251_11593">
<rect width="31.8919" height="40" fill="white" transform="translate(2.64633 0.587646) rotate(-4.91185)"/>
</clipPath>
</defs>
</svg>
