<svg width="40" height="40" viewBox="0 0 40 40" fill="none" xmlns="http://www.w3.org/2000/svg">
<g clip-path="url(#clip0_2251_11584)">
<g clip-path="url(#clip1_2251_11584)">
<g clip-path="url(#clip2_2251_11584)">
<path d="M18.119 0.438347C20.203 0.110826 21.0597 0.81277 22.8072 1.53669C24.7819 2.3548 26.4702 1.50789 28.5624 2.69454C30.7796 3.95195 31.1046 5.83179 32.0876 7.92775C35.6363 11.86 37.0824 16.0811 35.1345 21.2211C33.681 26.7353 30.2812 30.9441 26.0419 34.2665C22.4712 37.0649 18.0511 39.2092 13.5438 38.6944C10.4958 38.3463 8.61477 36.5696 7.07282 32.3811C6.30816 30.3069 6.59974 28.1876 6.14684 26.0916C5.66658 23.8681 4.38139 22.4526 4.3272 19.9775C4.29661 18.573 4.84308 17.3012 4.65656 15.8622C4.51256 14.7523 4.30813 14.1027 4.49754 12.931C4.90934 10.3839 6.87599 9.5441 7.80149 7.38297C8.36521 6.06691 8.60387 5.07191 9.78115 4.0861C11.3264 2.79198 12.9826 3.18879 14.6053 2.1582C15.8897 1.34259 16.4822 0.695826 18.119 0.438347Z" fill="#4285F4"/>
<path d="M18.1548 3.03552C20.3439 2.56419 21.1659 3.91949 23.035 4.31784C24.7286 4.6786 26.4281 4.04452 27.8417 5.31521C29.16 6.4999 29.4093 8.6552 30.3905 10.1499C31.4856 11.8182 32.9597 12.5322 33.3506 14.7667C34.0653 18.8536 31.2799 24.9638 28.8145 28.1639C26.6385 30.9884 22.318 34.5468 18.8574 35.5256C16.6749 36.1426 12.8184 35.5801 11.0193 34.2406C9.0048 32.7408 9.09889 28.5584 8.78208 26.3491C8.40483 23.7174 6.66679 21.7737 6.93708 19.0932C7.01409 18.3283 7.24953 17.5806 7.27059 16.806C7.3048 15.5432 6.78562 14.4196 7.10103 13.1252C7.47498 11.5897 8.86291 10.8213 9.61477 9.53644C10.4992 8.02488 10.4685 6.06862 12.486 5.50699C13.4038 5.25151 14.1573 5.27227 15.0759 4.83545C16.1214 4.33813 16.9988 3.28484 18.1554 3.03578L18.1548 3.03552Z" fill="#FFFEF9"/>
<path d="M18.5523 9.07741C21.1351 8.61593 23.7891 9.2573 25.1153 11.6761C25.7123 12.765 25.8388 13.8616 26.7394 14.8302C27.7175 15.8824 28.3503 16.2064 28.8139 17.7201C30.4296 23 25.1735 30.4965 20.3764 32.4689C18.0094 33.442 14.7927 33.2208 12.657 31.777C10.3258 30.201 11.4131 28.2617 11.1076 26.0254C10.9699 25.0172 10.58 24.0254 10.4694 22.9873C9.90123 17.6444 12.6301 10.1351 18.5526 9.07708L18.5523 9.07741Z" fill="#D2E3FC"/>
</g>
</g>
<path d="M15.7855 19.3061C16.4402 19.3061 16.971 18.775 16.971 18.1197C16.971 17.4645 16.4402 16.9333 15.7855 16.9333C15.1307 16.9333 14.6 17.4645 14.6 18.1197C14.6 18.775 15.1307 19.3061 15.7855 19.3061Z" fill="#4285F4"/>
<path d="M23.7646 21.4192C24.4193 21.4192 24.9501 20.888 24.9501 20.2328C24.9501 19.5776 24.4193 19.0464 23.7646 19.0464C23.1099 19.0464 22.5791 19.5776 22.5791 20.2328C22.5791 20.888 23.1099 21.4192 23.7646 21.4192Z" fill="#4285F4"/>
<path d="M19.7192 21.6663C19.5052 21.6663 19.2898 21.6435 19.0758 21.5975C18.2882 21.4283 17.6117 20.9637 17.1706 20.2895C16.984 20.0042 17.0639 19.6214 17.3489 19.4346C17.6339 19.2479 18.0164 19.3278 18.2031 19.6131C18.7423 20.4373 19.8556 20.6766 20.6854 20.1462C20.9726 19.9629 21.3542 20.0468 21.5374 20.3342C21.7207 20.6217 21.6364 21.0035 21.3496 21.1869C20.8554 21.5027 20.2927 21.6657 19.7196 21.6657L19.7192 21.6663Z" fill="#4285F4"/>
</g>
<defs>
<clipPath id="clip0_2251_11584">
<rect width="40" height="40" fill="white"/>
</clipPath>
<clipPath id="clip1_2251_11584">
<rect width="40" height="40" fill="white" transform="translate(1.13605 -1.7312) rotate(5.20288)"/>
</clipPath>
<clipPath id="clip2_2251_11584">
<rect width="31.8919" height="40" fill="white" transform="translate(2.6463 0.587402) rotate(-4.91185)"/>
</clipPath>
</defs>
</svg>
