<svg width="40" height="40" viewBox="0 0 40 40" fill="none" xmlns="http://www.w3.org/2000/svg">
<g clip-path="url(#clip0_2251_11599)">
<g clip-path="url(#clip1_2251_11599)">
<g clip-path="url(#clip2_2251_11599)">
<path d="M18.119 0.438347C20.2031 0.110826 21.0597 0.81277 22.8072 1.53669C24.782 2.3548 26.4703 1.50789 28.5625 2.69454C30.7796 3.95195 31.1047 5.83179 32.0876 7.92775C35.6363 11.86 37.0824 16.0811 35.1345 21.2211C33.681 26.7353 30.2813 30.9441 26.0419 34.2665C22.4713 37.0649 18.0512 39.2092 13.5439 38.6944C10.4958 38.3463 8.61481 36.5696 7.07285 32.3811C6.30819 30.3069 6.59977 28.1876 6.14687 26.0916C5.66661 23.8681 4.38142 22.4526 4.32723 19.9775C4.29664 18.573 4.84311 17.3012 4.65659 15.8622C4.5126 14.7523 4.30816 14.1027 4.49757 12.931C4.90937 10.3839 6.87603 9.5441 7.80152 7.38297C8.36524 6.06691 8.6039 5.07191 9.78118 4.0861C11.3264 2.79198 12.9826 3.18879 14.6053 2.1582C15.8898 1.34259 16.4822 0.695826 18.119 0.438347Z" fill="#164EA6"/>
<path d="M18.1548 3.03576C20.3439 2.56443 21.166 3.91973 23.035 4.31809C24.7286 4.67884 26.4281 4.04477 27.8418 5.31546C29.16 6.50014 29.4094 8.65544 30.3905 10.1501C31.4856 11.8185 32.9598 12.5324 33.3506 14.767C34.0653 18.8539 31.28 24.964 28.8146 28.1641C26.6386 30.9886 22.3181 34.5471 18.8574 35.5258C16.675 36.1429 12.8184 35.5803 11.0193 34.2408C9.00483 32.7411 9.09892 28.5586 8.78212 26.3493C8.40486 23.7176 6.66682 21.7739 6.93711 19.0934C7.01412 18.3286 7.24956 17.5808 7.27062 16.8062C7.30483 15.5434 6.78565 14.4199 7.10106 13.1255C7.47501 11.5899 8.86294 10.8215 9.6148 9.53668C10.4992 8.02512 10.4686 6.06886 12.4861 5.50723C13.4038 5.25175 14.1573 5.27251 15.0759 4.83569C16.1214 4.33838 16.9988 3.28508 18.1555 3.03602L18.1548 3.03576Z" fill="#D2E3FC"/>
<path d="M18.5523 9.07741C21.1351 8.61593 23.7891 9.2573 25.1153 11.6761C25.7123 12.765 25.8388 13.8616 26.7394 14.8302C27.7175 15.8824 28.3503 16.2064 28.8139 17.7201C30.4296 23 25.1735 30.4965 20.3764 32.4689C18.0094 33.442 14.7927 33.2208 12.657 31.777C10.3258 30.201 11.4131 28.2617 11.1076 26.0254C10.9699 25.0172 10.58 24.0254 10.4694 22.9873C9.90123 17.6444 12.6301 10.1351 18.5526 9.07708L18.5523 9.07741Z" fill="white"/>
</g>
</g>
<path d="M15.7855 19.3061C16.4402 19.3061 16.971 18.775 16.971 18.1197C16.971 17.4645 16.4402 16.9333 15.7855 16.9333C15.1308 16.9333 14.6 17.4645 14.6 18.1197C14.6 18.775 15.1308 19.3061 15.7855 19.3061Z" fill="#164EA6"/>
<path d="M23.7646 21.4192C24.4193 21.4192 24.9501 20.888 24.9501 20.2328C24.9501 19.5776 24.4193 19.0464 23.7646 19.0464C23.1099 19.0464 22.5791 19.5776 22.5791 20.2328C22.5791 20.888 23.1099 21.4192 23.7646 21.4192Z" fill="#164EA6"/>
<path d="M19.7192 21.6666C19.5052 21.6666 19.2898 21.6437 19.0758 21.5977C18.2882 21.4286 17.6117 20.964 17.1706 20.2897C16.984 20.0045 17.0639 19.6217 17.3489 19.4349C17.6339 19.2481 18.0164 19.3281 18.2031 19.6133C18.7423 20.4376 19.8556 20.6768 20.6854 20.1465C20.9726 19.9631 21.3542 20.0471 21.5374 20.3345C21.7207 20.6219 21.6364 21.0038 21.3496 21.1872C20.8554 21.503 20.2927 21.666 19.7196 21.666L19.7192 21.6666Z" fill="#164EA6"/>
</g>
<defs>
<clipPath id="clip0_2251_11599">
<rect width="40" height="40" fill="white"/>
</clipPath>
<clipPath id="clip1_2251_11599">
<rect width="40" height="40" fill="white" transform="translate(1.13608 -1.7312) rotate(5.20288)"/>
</clipPath>
<clipPath id="clip2_2251_11599">
<rect width="31.8919" height="40" fill="white" transform="translate(2.64633 0.587402) rotate(-4.91185)"/>
</clipPath>
</defs>
</svg>
