<svg width="96" height="24" viewBox="0 0 96 24" fill="none" xmlns="http://www.w3.org/2000/svg">
<g clip-path="url(#clip0_2250_10739)">
<g clip-path="url(#clip1_2250_10739)">
<g clip-path="url(#clip2_2250_10739)">
<path d="M7.19166 2.32688C8.22222 2.16493 8.64584 2.51203 9.50995 2.87001C10.4865 3.27456 11.3213 2.85577 12.3559 3.44256C13.4523 4.06435 13.613 4.99392 14.0991 6.03036C15.8539 7.97486 16.569 10.0622 15.6058 12.6039C14.887 15.3306 13.2058 17.4118 11.1095 19.0548C9.34383 20.4386 7.15811 21.4989 4.92927 21.2443C3.42203 21.0722 2.49187 20.1936 1.72938 18.1224C1.35126 17.0968 1.49544 16.0488 1.27149 15.0123C1.034 13.9128 0.398477 13.2128 0.371684 11.9889C0.356555 11.2944 0.626783 10.6655 0.534549 9.95391C0.463344 9.40506 0.362251 9.08387 0.455916 8.50445C0.659549 7.24494 1.63205 6.82964 2.0897 5.76097C2.36846 5.11018 2.48648 4.61816 3.06864 4.13068C3.83275 3.49074 4.65173 3.68697 5.45414 3.17734C6.08931 2.77403 6.38227 2.45421 7.19166 2.32688Z" fill="#186AB5"/>
<path d="M7.20938 3.61123C8.29186 3.37816 8.69838 4.04834 9.6226 4.24533C10.4601 4.42372 11.3005 4.11017 11.9995 4.73852C12.6514 5.32435 12.7747 6.39013 13.2599 7.12925C13.8014 7.95424 14.5304 8.30728 14.7236 9.41226C15.077 11.4332 13.6997 14.4547 12.4806 16.0371C11.4046 17.4338 9.26809 19.1934 7.55679 19.6774C6.4776 19.9825 4.57054 19.7044 3.68088 19.042C2.68474 18.3004 2.73127 16.2322 2.57461 15.1397C2.38806 13.8383 1.52861 12.8772 1.66226 11.5517C1.70034 11.1735 1.81677 10.8037 1.82718 10.4207C1.8441 9.7962 1.58736 9.24062 1.74333 8.60054C1.92825 7.84122 2.61458 7.46124 2.98637 6.8259C3.42371 6.07844 3.40855 5.11108 4.4062 4.83336C4.86001 4.70702 5.23263 4.71729 5.68685 4.50128C6.20388 4.25536 6.63772 3.73451 7.2097 3.61135L7.20938 3.61123Z" fill="#FFFEF9"/>
<path d="M7.40592 6.59882C8.6831 6.37062 9.99551 6.68777 10.6513 7.88385C10.9465 8.42233 11.0091 8.96457 11.4544 9.44357C11.9381 9.96387 12.251 10.1241 12.4802 10.8726C13.2792 13.4835 10.6801 17.1905 8.30795 18.1658C7.13749 18.647 5.54682 18.5376 4.49075 17.8237C3.33796 17.0443 3.87562 16.0854 3.72455 14.9795C3.65644 14.481 3.46364 13.9905 3.40896 13.4772C3.12801 10.8351 4.47743 7.12184 7.40606 6.59865L7.40592 6.59882Z" fill="#75B0E0"/>
<circle cx="7.61204" cy="14.1615" r="2.00256" transform="rotate(-4.91185 7.61204 14.1615)" fill="#F7F9FC"/>
</g>
</g>
</g>
<path d="M22 18.03V5.79H24.556V11.19L28.84 5.79H32.188L27.526 11.568L32.62 18.03H29.128L25.798 13.728L24.556 15.258V18.03H22Z" fill="#186AB5"/>
<path d="M35.3861 15.294C35.3861 15.666 35.5181 15.93 35.7821 16.086C36.0461 16.242 36.3521 16.32 36.7001 16.32C37.1321 16.32 37.4861 16.23 37.7621 16.05C38.0381 15.87 38.2781 15.636 38.4821 15.348V14.322H36.7541C36.3821 14.322 36.0581 14.388 35.7821 14.52C35.5181 14.652 35.3861 14.91 35.3861 15.294ZM36.4661 12.684L38.4821 12.666V12.378C38.4821 12.102 38.4341 11.874 38.3381 11.694C38.2421 11.502 38.1101 11.346 37.9421 11.226C37.7861 11.106 37.6061 11.022 37.4021 10.974C37.1981 10.914 36.9821 10.884 36.7541 10.884C36.5261 10.884 36.2981 10.92 36.0701 10.992C35.8541 11.052 35.6441 11.136 35.4401 11.244C35.2481 11.34 35.0621 11.454 34.8821 11.586C34.7141 11.706 34.5701 11.82 34.4501 11.928L33.3521 10.38C33.7721 9.936 34.2821 9.582 34.8821 9.318C35.4941 9.042 36.2261 8.904 37.0781 8.904C37.5461 8.904 38.0081 8.97 38.4641 9.102C38.9201 9.222 39.3281 9.408 39.6881 9.66C40.0481 9.912 40.3361 10.236 40.5521 10.632C40.7681 11.016 40.8761 11.472 40.8761 12V18.03H38.4821V17.31C38.1701 17.586 37.8161 17.802 37.4201 17.958C37.0241 18.114 36.5501 18.192 35.9981 18.192C35.5901 18.192 35.1941 18.138 34.8101 18.03C34.4381 17.922 34.1081 17.76 33.8201 17.544C33.5441 17.316 33.3221 17.034 33.1541 16.698C32.9861 16.35 32.9021 15.942 32.9021 15.474C32.9021 14.994 32.9921 14.58 33.1721 14.232C33.3641 13.884 33.6161 13.596 33.9281 13.368C34.2521 13.14 34.6301 12.972 35.0621 12.864C35.4941 12.744 35.9621 12.684 36.4661 12.684Z" fill="#186AB5"/>
<path d="M42.8987 18.03V5.79H45.2747V12.54L48.2087 9.066H51.0167L47.5427 13.116L51.4127 18.03H48.6587L46.0847 14.79L45.2747 15.744V18.03H42.8987Z" fill="#186AB5"/>
<path d="M52.3905 9.066H54.7845V18.03H52.3905V9.066ZM52.3905 5.79H54.7845V8.148H52.3905V5.79Z" fill="#186AB5"/>
<path d="M61.375 5.79H65.209L68.125 14.718L71.041 5.79H74.839V18.03H72.283V9.354L69.403 18.03H66.829L63.931 9.318V18.03H61.375V5.79Z" fill="#186AB5"/>
<path d="M78.892 15.294C78.892 15.666 79.024 15.93 79.288 16.086C79.552 16.242 79.858 16.32 80.206 16.32C80.638 16.32 80.992 16.23 81.268 16.05C81.544 15.87 81.784 15.636 81.988 15.348V14.322H80.26C79.888 14.322 79.564 14.388 79.288 14.52C79.024 14.652 78.892 14.91 78.892 15.294ZM79.972 12.684L81.988 12.666V12.378C81.988 12.102 81.94 11.874 81.844 11.694C81.748 11.502 81.616 11.346 81.448 11.226C81.292 11.106 81.1119 11.022 80.908 10.974C80.704 10.914 80.488 10.884 80.26 10.884C80.032 10.884 79.804 10.92 79.576 10.992C79.36 11.052 79.15 11.136 78.946 11.244C78.754 11.34 78.568 11.454 78.388 11.586C78.22 11.706 78.076 11.82 77.956 11.928L76.858 10.38C77.278 9.936 77.788 9.582 78.388 9.318C79 9.042 79.732 8.904 80.584 8.904C81.052 8.904 81.514 8.97 81.97 9.102C82.426 9.222 82.834 9.408 83.194 9.66C83.554 9.912 83.842 10.236 84.058 10.632C84.274 11.016 84.382 11.472 84.382 12V18.03H81.988V17.31C81.676 17.586 81.322 17.802 80.926 17.958C80.53 18.114 80.056 18.192 79.504 18.192C79.096 18.192 78.7 18.138 78.316 18.03C77.944 17.922 77.614 17.76 77.326 17.544C77.05 17.316 76.828 17.034 76.66 16.698C76.492 16.35 76.408 15.942 76.408 15.474C76.408 14.994 76.498 14.58 76.678 14.232C76.87 13.884 77.122 13.596 77.434 13.368C77.758 13.14 78.136 12.972 78.568 12.864C79 12.744 79.468 12.684 79.972 12.684Z" fill="#186AB5"/>
<path d="M88.3666 13.53C88.3666 13.83 88.4086 14.13 88.4926 14.43C88.5886 14.73 88.7266 15.006 88.9066 15.258C89.0986 15.498 89.3326 15.696 89.6086 15.852C89.8846 15.996 90.2086 16.068 90.5806 16.068C90.9406 16.068 91.2526 15.996 91.5166 15.852C91.7926 15.696 92.0146 15.498 92.1826 15.258C92.3626 15.006 92.4946 14.73 92.5786 14.43C92.6626 14.13 92.7046 13.83 92.7046 13.53C92.7046 13.242 92.6626 12.948 92.5786 12.648C92.4946 12.348 92.3626 12.084 92.1826 11.856C92.0146 11.616 91.7926 11.424 91.5166 11.28C91.2526 11.124 90.9406 11.046 90.5806 11.046C90.2086 11.046 89.8846 11.124 89.6086 11.28C89.3326 11.424 89.0986 11.616 88.9066 11.856C88.7266 12.084 88.5886 12.348 88.4926 12.648C88.4086 12.948 88.3666 13.242 88.3666 13.53ZM85.9006 13.53C85.9006 12.894 86.0206 12.3 86.2606 11.748C86.5126 11.184 86.8486 10.692 87.2686 10.272C87.6886 9.852 88.1806 9.522 88.7446 9.282C89.3086 9.03 89.9146 8.904 90.5626 8.904C91.1986 8.904 91.7926 9.03 92.3446 9.282C92.9086 9.522 93.4006 9.852 93.8206 10.272C94.2406 10.692 94.5706 11.184 94.8106 11.748C95.0626 12.3 95.1886 12.894 95.1886 13.53C95.1886 14.178 95.0626 14.79 94.8106 15.366C94.5706 15.93 94.2406 16.422 93.8206 16.842C93.4006 17.262 92.9086 17.598 92.3446 17.85C91.7926 18.09 91.1986 18.21 90.5626 18.21C89.9146 18.21 89.3086 18.09 88.7446 17.85C88.1806 17.598 87.6886 17.262 87.2686 16.842C86.8486 16.422 86.5126 15.93 86.2606 15.366C86.0206 14.79 85.9006 14.178 85.9006 13.53Z" fill="#186AB5"/>
<defs>
<clipPath id="clip0_2250_10739">
<rect width="16" height="24" fill="white"/>
</clipPath>
<clipPath id="clip1_2250_10739">
<rect width="19.7798" height="19.7798" fill="white" transform="translate(-1.20631 1.25398) rotate(5.20288)"/>
</clipPath>
<clipPath id="clip2_2250_10739">
<rect width="15.7704" height="19.7798" fill="white" transform="translate(-0.459496 2.40059) rotate(-4.91185)"/>
</clipPath>
</defs>
</svg>
