<svg width="102" height="24" viewBox="0 0 102 24" fill="none" xmlns="http://www.w3.org/2000/svg">
<g clip-path="url(#clip0_2250_10739)">
<g clip-path="url(#clip1_2250_10739)">
<path d="M10.9897 2.32688C12.0202 2.16493 12.4438 2.51203 13.3079 2.87001C14.2845 3.27456 15.1193 2.85577 16.1539 3.44256C17.2503 4.06435 17.411 4.99392 17.8971 6.03036C19.6519 7.97486 20.367 10.0622 19.4037 12.6039C18.685 15.3306 17.0038 17.4118 14.9075 19.0548C13.1418 20.4386 10.9561 21.4989 8.72727 21.2443C7.22002 21.0722 6.28987 20.1936 5.52738 18.1224C5.14926 17.0968 5.29344 16.0488 5.06948 15.0123C4.832 13.9128 4.19647 13.2128 4.16968 11.9889C4.15455 11.2944 4.42478 10.6655 4.33255 9.95391C4.26134 9.40506 4.16025 9.08387 4.25391 8.50445C4.45755 7.24494 5.43005 6.82964 5.8877 5.76097C6.16646 5.11018 6.28447 4.61816 6.86663 4.13068C7.63075 3.49074 8.44972 3.68697 9.25214 3.17734C9.88731 2.77403 10.1803 2.45421 10.9897 2.32688Z" fill="#2963F7"/>
<path d="M11.0074 3.61123C12.0899 3.37816 12.4964 4.04834 13.4206 4.24533C14.2581 4.42372 15.0985 4.11017 15.7975 4.73852C16.4494 5.32435 16.5727 6.39013 17.0579 7.12925C17.5994 7.95424 18.3284 8.30728 18.5216 9.41226C18.875 11.4332 17.4977 14.4547 16.2786 16.0371C15.2025 17.4338 13.0661 19.1934 11.3548 19.6774C10.2756 19.9825 8.36854 19.7044 7.47888 19.042C6.48274 18.3004 6.52927 16.2322 6.37261 15.1397C6.18605 13.8383 5.3266 12.8772 5.46026 11.5517C5.49834 11.1735 5.61477 10.8037 5.62518 10.4207C5.64209 9.7962 5.38536 9.24062 5.54133 8.60054C5.72625 7.84122 6.41257 7.46124 6.78437 6.8259C7.2217 6.07844 7.20655 5.11108 8.20419 4.83336C8.65801 4.70702 9.03063 4.71729 9.48485 4.50128C10.0019 4.25536 10.4357 3.73451 11.0077 3.61135L11.0074 3.61123Z" fill="#FFFEF9"/>
<path d="M11.2039 6.59882C12.4811 6.37062 13.7935 6.68777 14.4493 7.88385C14.7445 8.42233 14.8071 8.96457 15.2524 9.44357C15.7361 9.96387 16.049 10.1241 16.2782 10.8726C17.0772 13.4835 14.4781 17.1905 12.106 18.1658C10.9355 18.647 9.34482 18.5376 8.28874 17.8237C7.13595 17.0443 7.67361 16.0854 7.52254 14.9795C7.45444 14.481 7.26163 13.9905 7.20695 13.4772C6.92601 10.8351 8.27542 7.12184 11.2041 6.59865L11.2039 6.59882Z" fill="#73A5FF"/>
<circle cx="11.41" cy="14.1615" r="2.00256" transform="rotate(-4.91185 11.41 14.1615)" fill="#F7F9FC"/>
</g>
</g>
<path d="M28 5.99C28 5.87954 28.0895 5.79 28.2 5.79H30.356C30.4665 5.79 30.556 5.87954 30.556 5.99V10.6161C30.556 10.8056 30.7949 10.8888 30.9127 10.7404L34.7799 5.8657C34.8179 5.81788 34.8756 5.79 34.9366 5.79H37.7696C37.9377 5.79 38.0308 5.98477 37.9253 6.11559L33.6262 11.4439C33.5676 11.5165 33.567 11.62 33.6247 11.6933L38.3647 17.7062C38.4681 17.8374 38.3747 18.03 38.2077 18.03H35.2261C35.1642 18.03 35.1058 18.0014 35.0679 17.9524L31.9524 13.9275C31.8735 13.8256 31.7202 13.8238 31.639 13.9239L30.6007 15.2029C30.5718 15.2385 30.556 15.2831 30.556 15.329V17.83C30.556 17.9405 30.4665 18.03 30.356 18.03H28.2C28.0895 18.03 28 17.9405 28 17.83V5.99Z" fill="#2963F7"/>
<path d="M41.9981 18.192C40.3421 18.192 38.9021 17.346 38.9021 15.474C38.9021 13.566 40.4681 12.684 42.4661 12.684L44.2839 12.6678C44.3936 12.6668 44.4821 12.5775 44.4821 12.4678V12.378C44.4821 11.298 43.6541 10.884 42.7541 10.884C41.9321 10.884 41.1389 11.3603 40.6202 11.783C40.5277 11.8583 40.3897 11.8428 40.3207 11.7455L39.4474 10.5144C39.392 10.4363 39.3995 10.3296 39.4676 10.2624C40.523 9.22219 41.7637 8.904 43.2221 8.904C45.2201 8.904 46.8761 10.11 46.8761 12V17.83C46.8761 17.9405 46.7866 18.03 46.6761 18.03H44.6821C44.5716 18.03 44.4821 17.9405 44.4821 17.83V17.7543C44.4821 17.5819 44.2749 17.4866 44.1332 17.5847C43.5727 17.9729 42.901 18.192 41.9981 18.192ZM42.7541 14.322C42.0161 14.322 41.3861 14.52 41.3861 15.294C41.3861 16.032 41.9981 16.32 42.7001 16.32C43.5378 16.32 44.0371 15.9477 44.4441 15.4C44.4691 15.3664 44.4821 15.3255 44.4821 15.2836V14.522C44.4821 14.4115 44.3925 14.322 44.2821 14.322H42.7541Z" fill="#2963F7"/>
<path d="M48.8987 5.99C48.8987 5.87954 48.9882 5.79 49.0987 5.79H51.0747C51.1852 5.79 51.2747 5.87954 51.2747 5.99V11.9932C51.2747 12.1796 51.5072 12.2647 51.6275 12.1223L54.1488 9.13695C54.1868 9.09196 54.2427 9.066 54.3016 9.066H56.5802C56.7513 9.066 56.8434 9.26698 56.7317 9.3966L53.6326 12.9909C53.57 13.0635 53.5677 13.1704 53.6272 13.2456L57.1563 17.7059C57.26 17.837 57.1666 18.03 56.9994 18.03H54.7552C54.6943 18.03 54.6366 18.0022 54.5986 17.9544L52.2376 14.9825C52.1587 14.8832 52.0085 14.8814 51.9274 14.9788L51.3211 15.7064C51.2911 15.7423 51.2747 15.7876 51.2747 15.8344V17.83C51.2747 17.9405 51.1852 18.03 51.0747 18.03H49.0987C48.9882 18.03 48.8987 17.9405 48.8987 17.83V5.99Z" fill="#2963F7"/>
<path d="M58.5905 18.03C58.48 18.03 58.3905 17.9405 58.3905 17.83V9.266C58.3905 9.15554 58.48 9.066 58.5905 9.066H60.5845C60.6949 9.066 60.7845 9.15554 60.7845 9.266V17.83C60.7845 17.9405 60.6949 18.03 60.5845 18.03H58.5905ZM58.3905 5.99C58.3905 5.87954 58.48 5.79 58.5905 5.79H60.6025C60.7129 5.79 60.8025 5.87954 60.8025 5.99V7.93C60.8025 8.04046 60.7129 8.13 60.6025 8.13H58.5905C58.48 8.13 58.3905 8.04046 58.3905 7.93V5.99Z" fill="#2963F7"/>
<path d="M67.375 5.99C67.375 5.87954 67.4645 5.79 67.575 5.79H71.0639C71.1505 5.79 71.2272 5.84565 71.254 5.92791L73.9349 14.1359C73.9949 14.3198 74.2551 14.3198 74.3151 14.1359L76.996 5.92791C77.0228 5.84565 77.0995 5.79 77.1861 5.79H80.657C80.7675 5.79 80.857 5.87954 80.857 5.99V17.83C80.857 17.9405 80.7675 18.03 80.657 18.03H78.483C78.3725 18.03 78.283 17.9405 78.283 17.83V10.5913C78.283 10.3643 77.9647 10.3129 77.8932 10.5283L75.4485 17.893C75.4213 17.9748 75.3448 18.03 75.2587 18.03H72.9732C72.8871 18.03 72.8107 17.9749 72.7835 17.8931L70.3208 10.4897C70.2491 10.2744 69.931 10.3259 69.931 10.5529V17.83C69.931 17.9405 69.8415 18.03 69.731 18.03H67.575C67.4645 18.03 67.375 17.9405 67.375 17.83V5.99Z" fill="#2963F7"/>
<path d="M85.504 18.192C83.848 18.192 82.408 17.346 82.408 15.474C82.408 13.566 83.974 12.684 85.972 12.684L87.7897 12.6678C87.8995 12.6668 87.988 12.5775 87.988 12.4678V12.378C87.988 11.298 87.16 10.884 86.26 10.884C85.4379 10.884 84.6448 11.3603 84.126 11.783C84.0335 11.8583 83.8955 11.8428 83.8265 11.7455L82.9533 10.5144C82.8979 10.4363 82.9054 10.3296 82.9735 10.2624C84.0288 9.22219 85.2695 8.904 86.728 8.904C88.726 8.904 90.382 10.11 90.382 12V17.83C90.382 17.9405 90.2924 18.03 90.182 18.03H88.188C88.0775 18.03 87.988 17.9405 87.988 17.83V17.7543C87.988 17.5819 87.7808 17.4866 87.6391 17.5847C87.0786 17.9729 86.4069 18.192 85.504 18.192ZM86.26 14.322C85.522 14.322 84.892 14.52 84.892 15.294C84.892 16.032 85.504 16.32 86.206 16.32C87.0437 16.32 87.543 15.9477 87.9499 15.4C87.9749 15.3664 87.988 15.3255 87.988 15.2836V14.522C87.988 14.4115 87.8984 14.322 87.788 14.322H86.26Z" fill="#2963F7"/>
<path d="M91.9006 13.53C91.9006 11.01 93.9886 8.904 96.5626 8.904C99.0826 8.904 101.189 11.01 101.189 13.53C101.189 16.122 99.0826 18.21 96.5626 18.21C93.9886 18.21 91.9006 16.122 91.9006 13.53ZM94.3666 13.53C94.3666 14.736 95.0866 16.068 96.5806 16.068C98.0386 16.068 98.7046 14.736 98.7046 13.53C98.7046 12.36 98.0386 11.046 96.5806 11.046C95.0866 11.046 94.3666 12.36 94.3666 13.53Z" fill="#2963F7"/>
<defs>
<clipPath id="clip0_2250_10739">
<rect width="19.7798" height="19.7798" fill="white" transform="translate(2.59168 1.25398) rotate(5.20288)"/>
</clipPath>
<clipPath id="clip1_2250_10739">
<rect width="15.7704" height="19.7798" fill="white" transform="translate(3.3385 2.40059) rotate(-4.91185)"/>
</clipPath>
</defs>
</svg>
