<svg width="102" height="24" viewBox="0 0 102 24" fill="none" xmlns="http://www.w3.org/2000/svg">
<g clip-path="url(#clip0_2250_10739)">
<g clip-path="url(#clip1_2250_10739)">
<path d="M10.9897 2.32688C12.0202 2.16493 12.4438 2.51203 13.3079 2.87001C14.2845 3.27456 15.1193 2.85577 16.1539 3.44256C17.2503 4.06435 17.411 4.99392 17.8971 6.03036C19.6519 7.97486 20.367 10.0622 19.4037 12.6039C18.685 15.3306 17.0038 17.4118 14.9075 19.0548C13.1418 20.4386 10.9561 21.4989 8.72727 21.2443C7.22002 21.0722 6.28987 20.1936 5.52738 18.1224C5.14926 17.0968 5.29344 16.0488 5.06948 15.0123C4.832 13.9128 4.19647 13.2128 4.16968 11.9889C4.15455 11.2944 4.42478 10.6655 4.33255 9.95391C4.26134 9.40506 4.16025 9.08387 4.25391 8.50445C4.45755 7.24494 5.43005 6.82964 5.8877 5.76097C6.16646 5.11018 6.28447 4.61816 6.86663 4.13068C7.63075 3.49074 8.44972 3.68697 9.25214 3.17734C9.88731 2.77403 10.1803 2.45421 10.9897 2.32688Z" fill="#2963F7"/>
<path d="M11.0074 3.61123C12.0899 3.37816 12.4964 4.04834 13.4206 4.24533C14.2581 4.42372 15.0985 4.11017 15.7975 4.73852C16.4494 5.32435 16.5727 6.39013 17.0579 7.12925C17.5994 7.95424 18.3284 8.30728 18.5216 9.41226C18.875 11.4332 17.4977 14.4547 16.2786 16.0371C15.2025 17.4338 13.0661 19.1934 11.3548 19.6774C10.2756 19.9825 8.36854 19.7044 7.47888 19.042C6.48274 18.3004 6.52927 16.2322 6.37261 15.1397C6.18605 13.8383 5.3266 12.8772 5.46026 11.5517C5.49834 11.1735 5.61477 10.8037 5.62518 10.4207C5.64209 9.7962 5.38536 9.24062 5.54133 8.60054C5.72625 7.84122 6.41257 7.46124 6.78437 6.8259C7.2217 6.07844 7.20655 5.11108 8.20419 4.83336C8.65801 4.70702 9.03063 4.71729 9.48485 4.50128C10.0019 4.25536 10.4357 3.73451 11.0077 3.61135L11.0074 3.61123Z" fill="#FFFEF9"/>
<path d="M11.2039 6.59882C12.4811 6.37062 13.7935 6.68777 14.4493 7.88385C14.7445 8.42233 14.8071 8.96457 15.2524 9.44357C15.7361 9.96387 16.049 10.1241 16.2782 10.8726C17.0772 13.4835 14.4781 17.1905 12.106 18.1658C10.9355 18.647 9.34482 18.5376 8.28874 17.8237C7.13595 17.0443 7.67361 16.0854 7.52254 14.9795C7.45444 14.481 7.26163 13.9905 7.20695 13.4772C6.92601 10.8351 8.27542 7.12184 11.2041 6.59865L11.2039 6.59882Z" fill="#73A5FF"/>
<circle cx="11.41" cy="14.1615" r="2.00256" transform="rotate(-4.91185 11.41 14.1615)" fill="#F7F9FC"/>
</g>
</g>
<path d="M28 18.03V5.79H30.556V11.19L34.84 5.79H38.188L33.526 11.568L38.62 18.03H35.128L31.798 13.728L30.556 15.258V18.03H28Z" fill="#2963F7"/>
<path d="M41.3861 15.294C41.3861 15.666 41.5181 15.93 41.7821 16.086C42.0461 16.242 42.3521 16.32 42.7001 16.32C43.1321 16.32 43.4861 16.23 43.7621 16.05C44.0381 15.87 44.2781 15.636 44.4821 15.348V14.322H42.7541C42.3821 14.322 42.0581 14.388 41.7821 14.52C41.5181 14.652 41.3861 14.91 41.3861 15.294ZM42.4661 12.684L44.4821 12.666V12.378C44.4821 12.102 44.4341 11.874 44.3381 11.694C44.2421 11.502 44.1101 11.346 43.9421 11.226C43.7861 11.106 43.6061 11.022 43.4021 10.974C43.1981 10.914 42.9821 10.884 42.7541 10.884C42.5261 10.884 42.2981 10.92 42.0701 10.992C41.8541 11.052 41.6441 11.136 41.4401 11.244C41.2481 11.34 41.0621 11.454 40.8821 11.586C40.7141 11.706 40.5701 11.82 40.4501 11.928L39.3521 10.38C39.7721 9.936 40.2821 9.582 40.8821 9.318C41.4941 9.042 42.2261 8.904 43.0781 8.904C43.5461 8.904 44.0081 8.97 44.4641 9.102C44.9201 9.222 45.3281 9.408 45.6881 9.66C46.0481 9.912 46.3361 10.236 46.5521 10.632C46.7681 11.016 46.8761 11.472 46.8761 12V18.03H44.4821V17.31C44.1701 17.586 43.8161 17.802 43.4201 17.958C43.0241 18.114 42.5501 18.192 41.9981 18.192C41.5901 18.192 41.1941 18.138 40.8101 18.03C40.4381 17.922 40.1081 17.76 39.8201 17.544C39.5441 17.316 39.3221 17.034 39.1541 16.698C38.9861 16.35 38.9021 15.942 38.9021 15.474C38.9021 14.994 38.9921 14.58 39.1721 14.232C39.3641 13.884 39.6161 13.596 39.9281 13.368C40.2521 13.14 40.6301 12.972 41.0621 12.864C41.4941 12.744 41.9621 12.684 42.4661 12.684Z" fill="#2963F7"/>
<path d="M48.8987 18.03V5.79H51.2747V12.54L54.2087 9.066H57.0167L53.5427 13.116L57.4127 18.03H54.6587L52.0847 14.79L51.2747 15.744V18.03H48.8987Z" fill="#2963F7"/>
<path d="M58.3905 9.066H60.7845V18.03H58.3905V9.066ZM58.3905 5.79H60.7845V8.148H58.3905V5.79Z" fill="#2963F7"/>
<path d="M67.375 5.79H71.209L74.125 14.718L77.041 5.79H80.839V18.03H78.283V9.354L75.403 18.03H72.829L69.931 9.318V18.03H67.375V5.79Z" fill="#2963F7"/>
<path d="M84.892 15.294C84.892 15.666 85.024 15.93 85.288 16.086C85.552 16.242 85.858 16.32 86.206 16.32C86.638 16.32 86.992 16.23 87.268 16.05C87.544 15.87 87.784 15.636 87.988 15.348V14.322H86.26C85.888 14.322 85.564 14.388 85.288 14.52C85.024 14.652 84.892 14.91 84.892 15.294ZM85.972 12.684L87.988 12.666V12.378C87.988 12.102 87.94 11.874 87.844 11.694C87.748 11.502 87.616 11.346 87.448 11.226C87.292 11.106 87.112 11.022 86.908 10.974C86.704 10.914 86.488 10.884 86.26 10.884C86.032 10.884 85.804 10.92 85.576 10.992C85.36 11.052 85.15 11.136 84.946 11.244C84.754 11.34 84.568 11.454 84.388 11.586C84.22 11.706 84.076 11.82 83.956 11.928L82.858 10.38C83.278 9.936 83.788 9.582 84.388 9.318C85 9.042 85.732 8.904 86.584 8.904C87.052 8.904 87.514 8.97 87.97 9.102C88.426 9.222 88.834 9.408 89.194 9.66C89.554 9.912 89.842 10.236 90.058 10.632C90.274 11.016 90.382 11.472 90.382 12V18.03H87.988V17.31C87.676 17.586 87.322 17.802 86.926 17.958C86.53 18.114 86.056 18.192 85.504 18.192C85.096 18.192 84.7 18.138 84.316 18.03C83.944 17.922 83.614 17.76 83.326 17.544C83.05 17.316 82.828 17.034 82.66 16.698C82.492 16.35 82.408 15.942 82.408 15.474C82.408 14.994 82.498 14.58 82.678 14.232C82.87 13.884 83.122 13.596 83.434 13.368C83.758 13.14 84.136 12.972 84.568 12.864C85 12.744 85.468 12.684 85.972 12.684Z" fill="#2963F7"/>
<path d="M94.3666 13.53C94.3666 13.83 94.4086 14.13 94.4926 14.43C94.5886 14.73 94.7266 15.006 94.9066 15.258C95.0986 15.498 95.3326 15.696 95.6086 15.852C95.8846 15.996 96.2086 16.068 96.5806 16.068C96.9406 16.068 97.2526 15.996 97.5166 15.852C97.7926 15.696 98.0146 15.498 98.1826 15.258C98.3626 15.006 98.4946 14.73 98.5786 14.43C98.6626 14.13 98.7046 13.83 98.7046 13.53C98.7046 13.242 98.6626 12.948 98.5786 12.648C98.4946 12.348 98.3626 12.084 98.1826 11.856C98.0146 11.616 97.7926 11.424 97.5166 11.28C97.2526 11.124 96.9406 11.046 96.5806 11.046C96.2086 11.046 95.8846 11.124 95.6086 11.28C95.3326 11.424 95.0986 11.616 94.9066 11.856C94.7266 12.084 94.5886 12.348 94.4926 12.648C94.4086 12.948 94.3666 13.242 94.3666 13.53ZM91.9006 13.53C91.9006 12.894 92.0206 12.3 92.2606 11.748C92.5126 11.184 92.8486 10.692 93.2686 10.272C93.6886 9.852 94.1806 9.522 94.7446 9.282C95.3086 9.03 95.9146 8.904 96.5626 8.904C97.1986 8.904 97.7926 9.03 98.3446 9.282C98.9086 9.522 99.4006 9.852 99.8206 10.272C100.241 10.692 100.571 11.184 100.811 11.748C101.063 12.3 101.189 12.894 101.189 13.53C101.189 14.178 101.063 14.79 100.811 15.366C100.571 15.93 100.241 16.422 99.8206 16.842C99.4006 17.262 98.9086 17.598 98.3446 17.85C97.7926 18.09 97.1986 18.21 96.5626 18.21C95.9146 18.21 95.3086 18.09 94.7446 17.85C94.1806 17.598 93.6886 17.262 93.2686 16.842C92.8486 16.422 92.5126 15.93 92.2606 15.366C92.0206 14.79 91.9006 14.178 91.9006 13.53Z" fill="#2963F7"/>
<defs>
<clipPath id="clip0_2250_10739">
<rect width="19.7798" height="19.7798" fill="white" transform="translate(2.59168 1.25398) rotate(5.20288)"/>
</clipPath>
<clipPath id="clip1_2250_10739">
<rect width="15.7704" height="19.7798" fill="white" transform="translate(3.3385 2.40059) rotate(-4.91185)"/>
</clipPath>
</defs>
</svg>
