<svg width="24" height="24" viewBox="0 0 24 24" fill="none" xmlns="http://www.w3.org/2000/svg">
<g clip-path="url(#clip0_2262_10784)">
<g clip-path="url(#clip1_2262_10784)">
<path d="M11.398 2.32688C12.4285 2.16493 12.8522 2.51204 13.7163 2.87001C14.6928 3.27456 15.5276 2.85577 16.5622 3.44256C17.6586 4.06435 17.8193 4.99392 18.3054 6.03037C20.0602 7.97486 20.7753 10.0622 19.8121 12.6039C19.0933 15.3306 17.4122 17.4118 15.3158 19.0548C13.5502 20.4386 11.3644 21.4989 9.13559 21.2444C7.62835 21.0722 6.69819 20.1936 5.9357 18.1224C5.55758 17.0968 5.70177 16.0488 5.47781 15.0123C5.24032 13.9128 4.6048 13.2128 4.57801 11.9889C4.56288 11.2944 4.8331 10.6655 4.74087 9.95391C4.66967 9.40506 4.56857 9.08387 4.66224 8.50446C4.86587 7.24494 5.83837 6.82964 6.29602 5.76097C6.57478 5.11019 6.6928 4.61816 7.27496 4.13069C8.03907 3.49075 8.85805 3.68697 9.66046 3.17735C10.2956 2.77403 10.5886 2.45421 11.398 2.32688Z" fill="#2963F7"/>
<path d="M11.4157 3.61123C12.4982 3.37816 12.9047 4.04835 13.8289 4.24533C14.6664 4.42372 15.5068 4.11018 16.2058 4.73853C16.8577 5.32435 16.981 6.39013 17.4662 7.12926C18.0077 7.95424 18.7367 8.30729 18.9299 9.41226C19.2834 11.4332 17.906 14.4547 16.6869 16.0371C15.6109 17.4338 13.4744 19.1934 11.7631 19.6774C10.6839 19.9826 8.77686 19.7044 7.8872 19.042C6.89106 18.3004 6.93759 16.2322 6.78093 15.1397C6.59438 13.8383 5.73493 12.8772 5.86858 11.5517C5.90666 11.1735 6.02309 10.8037 6.0335 10.4207C6.05042 9.79621 5.79369 9.24063 5.94966 8.60055C6.13457 7.84122 6.8209 7.46124 7.19269 6.82591C7.63003 6.07845 7.61487 5.11108 8.61252 4.83336C9.06633 4.70702 9.43895 4.71729 9.89317 4.50128C10.4102 4.25537 10.844 3.73451 11.416 3.61135L11.4157 3.61123Z" fill="#FFFEF9"/>
<path d="M11.6122 6.59882C12.8894 6.37062 14.2018 6.68777 14.8576 7.88384C15.1529 8.42233 15.2154 8.96457 15.6607 9.44357C16.1444 9.96387 16.4573 10.1241 16.6866 10.8726C17.4855 13.4835 14.8864 17.1905 12.5143 18.1658C11.3438 18.647 9.75315 18.5376 8.69707 17.8237C7.54428 17.0443 8.08194 16.0854 7.93087 14.9795C7.86276 14.481 7.66996 13.9905 7.61528 13.4772C7.33433 10.8351 8.68375 7.12184 11.6124 6.59865L11.6122 6.59882Z" fill="#73A5FF"/>
<circle cx="11.8184" cy="14.1615" r="2.00256" transform="rotate(-4.91185 11.8184 14.1615)" fill="#F7F9FC"/>
</g>
</g>
<defs>
<clipPath id="clip0_2262_10784">
<rect width="19.7798" height="19.7798" fill="white" transform="translate(3 1.25398) rotate(5.20288)"/>
</clipPath>
<clipPath id="clip1_2262_10784">
<rect width="15.7704" height="19.7798" fill="white" transform="translate(3.74683 2.40059) rotate(-4.91185)"/>
</clipPath>
</defs>
</svg>
