<svg width="24" height="24" viewBox="0 0 24 24" fill="none" xmlns="http://www.w3.org/2000/svg">
<g clip-path="url(#clip0_2262_10784)">
<g clip-path="url(#clip1_2262_10784)">
<g clip-path="url(#clip2_2262_10784)">
<path d="M11.2871 0.392262C12.5238 0.197913 13.0321 0.614442 14.0691 1.04402C15.2409 1.52947 16.2427 1.02692 17.4842 1.73108C18.7999 2.47722 18.9927 3.5927 19.576 4.83644C21.6818 7.16984 22.5399 9.67462 21.384 12.7246C20.5215 15.9968 18.5041 18.4942 15.9885 20.4657C13.8697 22.1263 11.2469 23.3987 8.57225 23.0932C6.76356 22.8867 5.64737 21.8324 4.73238 19.3469C4.27863 18.1161 4.45166 16.8585 4.18291 15.6148C3.89792 14.2954 3.1353 13.4554 3.10314 11.9867C3.08499 11.1533 3.40926 10.3986 3.29858 9.5447C3.21314 8.88608 3.09182 8.50064 3.20422 7.80535C3.44858 6.29393 4.61558 5.79557 5.16477 4.51317C5.49928 3.73222 5.6409 3.1418 6.33949 2.55682C7.25642 1.78889 8.2392 2.02436 9.20209 1.41282C9.96429 0.928834 10.3158 0.545049 11.2871 0.392262Z" fill="#2963F7"/>
<path d="M11.3084 1.93347C12.6074 1.65379 13.0952 2.45801 14.2042 2.6944C15.2092 2.90846 16.2177 2.53221 17.0565 3.28623C17.8388 3.98922 17.9868 5.26816 18.569 6.15511C19.2188 7.14509 20.0936 7.56874 20.3255 8.89471C20.7496 11.3199 19.0968 14.9456 17.6338 16.8445C16.3426 18.5206 13.7788 20.6321 11.7253 21.2129C10.4302 21.5791 8.14177 21.2453 7.07418 20.4504C5.87881 19.5604 5.93464 17.0786 5.74665 15.7676C5.52279 14.206 4.49145 13.0526 4.65184 11.462C4.69753 11.0081 4.83724 10.5644 4.84974 10.1048C4.87004 9.35545 4.56196 8.68875 4.74912 7.92065C4.97102 7.00947 5.79461 6.55349 6.24077 5.79108C6.76557 4.89413 6.74738 3.7333 7.94455 3.40003C8.48913 3.24843 8.93628 3.26075 9.48134 3.00154C10.1018 2.70644 10.6224 2.08142 11.3088 1.93362L11.3084 1.93347Z" fill="#FFFEF9"/>
<path d="M11.5442 5.51858C13.0768 5.24474 14.6517 5.62533 15.4387 7.06061C15.793 7.70679 15.868 8.35748 16.4024 8.93228C16.9828 9.55664 17.3583 9.74887 17.6334 10.6471C18.5922 13.7802 15.4732 18.2286 12.6267 19.399C11.2221 19.9764 9.31331 19.8452 8.04602 18.9884C6.66267 18.0532 7.30786 16.9025 7.12658 15.5754C7.04485 14.9772 6.81349 14.3887 6.74787 13.7726C6.41073 10.6022 8.03003 6.14621 11.5444 5.51838L11.5442 5.51858Z" fill="#73A5FF"/>
<circle cx="11.7916" cy="14.5938" r="2.40307" transform="rotate(-4.91185 11.7916 14.5938)" fill="#F7F9FC"/>
</g>
</g>
</g>
<defs>
<clipPath id="clip0_2262_10784">
<rect width="24" height="24" fill="white"/>
</clipPath>
<clipPath id="clip1_2262_10784">
<rect width="23.7358" height="23.7358" fill="white" transform="translate(1.20953 -0.895218) rotate(5.20288)"/>
</clipPath>
<clipPath id="clip2_2262_10784">
<rect width="18.9245" height="23.7358" fill="white" transform="translate(2.10573 0.480705) rotate(-4.91185)"/>
</clipPath>
</defs>
</svg>
