<svg width="24" height="24" viewBox="0 0 24 24" fill="none" xmlns="http://www.w3.org/2000/svg">
<g clip-path="url(#clip0_2250_10718)">
<g clip-path="url(#clip1_2250_10718)">
<path d="M10.9897 2.32688C12.0202 2.16493 12.4438 2.51203 13.3079 2.87001C14.2845 3.27456 15.1193 2.85577 16.1539 3.44256C17.2503 4.06435 17.411 4.99392 17.8971 6.03036C19.6519 7.97486 20.367 10.0622 19.4037 12.6039C18.685 15.3306 17.0038 17.4118 14.9075 19.0548C13.1418 20.4386 10.9561 21.4989 8.72727 21.2443C7.22002 21.0722 6.28987 20.1936 5.52738 18.1224C5.14926 17.0968 5.29344 16.0488 5.06948 15.0123C4.832 13.9128 4.19647 13.2128 4.16968 11.9889C4.15455 11.2944 4.42478 10.6655 4.33255 9.95391C4.26134 9.40506 4.16025 9.08387 4.25391 8.50445C4.45755 7.24494 5.43005 6.82964 5.8877 5.76097C6.16646 5.11018 6.28447 4.61816 6.86663 4.13068C7.63075 3.49074 8.44972 3.68697 9.25214 3.17734C9.88731 2.77403 10.1803 2.45421 10.9897 2.32688Z" fill="#2963F7"/>
<path d="M11.0074 3.61123C12.0899 3.37816 12.4964 4.04834 13.4206 4.24533C14.2581 4.42372 15.0985 4.11017 15.7975 4.73852C16.4494 5.32435 16.5727 6.39013 17.0579 7.12925C17.5994 7.95424 18.3284 8.30728 18.5216 9.41226C18.875 11.4332 17.4977 14.4547 16.2786 16.0371C15.2025 17.4338 13.0661 19.1934 11.3548 19.6774C10.2756 19.9825 8.36854 19.7044 7.47888 19.042C6.48274 18.3004 6.52927 16.2322 6.37261 15.1397C6.18605 13.8383 5.3266 12.8772 5.46026 11.5517C5.49834 11.1735 5.61477 10.8037 5.62518 10.4207C5.64209 9.7962 5.38536 9.24062 5.54133 8.60054C5.72625 7.84122 6.41257 7.46124 6.78437 6.8259C7.2217 6.07844 7.20655 5.11108 8.20419 4.83336C8.65801 4.70702 9.03063 4.71729 9.48485 4.50128C10.0019 4.25536 10.4357 3.73451 11.0077 3.61135L11.0074 3.61123Z" fill="#FFFEF9"/>
<path d="M11.2039 6.59882C12.4811 6.37062 13.7935 6.68777 14.4493 7.88385C14.7445 8.42233 14.8071 8.96457 15.2524 9.44357C15.7361 9.96387 16.049 10.1241 16.2782 10.8726C17.0772 13.4835 14.4781 17.1905 12.106 18.1658C10.9355 18.647 9.34482 18.5376 8.28874 17.8237C7.13595 17.0443 7.67361 16.0854 7.52254 14.9795C7.45444 14.481 7.26163 13.9905 7.20695 13.4772C6.92601 10.8351 8.27542 7.12184 11.2041 6.59865L11.2039 6.59882Z" fill="#73A5FF"/>
<circle cx="11.41" cy="14.1615" r="2.00256" transform="rotate(-4.91185 11.41 14.1615)" fill="#F7F9FC"/>
</g>
</g>
<defs>
<clipPath id="clip0_2250_10718">
<rect width="19.7798" height="19.7798" fill="white" transform="translate(2.59168 1.25398) rotate(5.20288)"/>
</clipPath>
<clipPath id="clip1_2250_10718">
<rect width="15.7704" height="19.7798" fill="white" transform="translate(3.3385 2.40059) rotate(-4.91185)"/>
</clipPath>
</defs>
</svg>
